<svg width="567" height="116" viewBox="0 0 567 116" fill="black" xmlns="http://www.w3.org/2000/svg">
<g clip-path="url(#clip0)">
<path d="M242 88.21L257.87 79.08C260.99 85.3333 266.277 88.4567 273.73 88.45C280.73 88.45 285.03 85.33 285.03 80.76C285.03 76.19 279.03 74.76 268.68 72.59C254.5 69.46 245.37 63.7 245.37 51.68C245.37 38.68 258.59 29.8 273.25 29.8C285.75 29.8 294.4 33.17 302.09 42.8L286.95 51.46C284.07 46.46 279.74 44.01 273.49 44.01C267 44.01 263.4 46.89 263.4 50.74C263.4 55.54 270.61 56.5 280.22 58.91C293.44 62.27 303.54 66.84 303.54 80.06C303.54 93.76 290.08 103.13 273.25 103.13C259.31 103.11 248.73 99.27 242 88.21ZM313.15 101.21V40.21L330.94 29.8V101.19L313.15 101.21ZM343.44 101.21V63.7C343.44 44.47 357.62 29.8 377.33 29.8C397.33 29.8 411.22 45.43 411.22 63.7V101.19H393.22V64.9C393.22 53.84 386.49 47.35 377.36 47.35C367.5 47.35 361.49 54.35 361.49 64.9V101.19L343.44 101.21ZM420.8 66.34C420.8 44.95 436.18 29.8 457.8 29.8C471.26 29.8 483.27 36.8 489.04 47.59L473.66 56.73C472.149 53.7779 469.838 51.3103 466.991 49.6092C464.144 47.9081 460.876 47.0421 457.56 47.11C446.98 47.11 439.05 55.04 439.05 66.34C439.05 77.4 446.5 85.81 457.56 85.81C464.77 85.81 471.02 82.2 473.9 76.19L489.28 85.09C486.114 90.6243 481.526 95.2114 475.991 98.3762C470.456 101.541 464.175 103.169 457.8 103.09C436.46 103.11 420.8 87.73 420.8 66.34ZM498.92 101.19V10.34L516.74 0V35.09C521.629 31.7395 527.394 29.9 533.32 29.8C553.03 29.8 566.73 43.26 566.73 63.21V101.21H548.73V64.9C548.73 53.84 542 47.35 532.87 47.35C523.01 47.35 517 54.35 517 64.9V101.19H498.92Z" fill="black"/>
<path d="M199.13 66.25C199.199 73.6708 196.985 80.9335 192.789 87.0544C188.593 93.1753 182.617 97.8586 175.67 100.47C163.5 105.22 149.24 103.47 135.49 95.7L125.49 89.94C123.26 92.4998 120.674 94.7259 117.81 96.55L85.8104 115.27H85.7504V99.12H85.8104L133.9 70.93C133.621 73.2793 133.105 75.5943 132.36 77.84L142.36 83.56C155.2 90.86 164.78 89.71 170.55 87.46C173.689 86.2637 176.524 84.3883 178.853 81.968C181.181 79.5476 182.946 76.6423 184.02 73.46C184.757 71.1519 185.128 68.7428 185.12 66.32C185.115 61.7265 183.688 57.2473 181.034 53.4978C178.38 49.7483 174.631 46.9125 170.3 45.38C164.49 43.19 154.91 42.15 142.16 49.61L64.0804 95.32L63.9904 95.38C55.3304 100.45 46.4304 103.06 37.9904 103.11C33.1819 103.159 28.4055 102.322 23.9004 100.64C15.0635 97.393 7.82406 90.8553 3.69595 82.3941C-0.43216 73.9329 -1.12927 64.2033 1.7504 55.24C3.46737 50.0804 6.30407 45.3643 10.0573 41.4295C13.8106 37.4947 18.3876 34.4386 23.4604 32.48C35.6304 27.73 49.8904 29.42 63.6404 37.25L73.6404 43.01C75.8719 40.4476 78.462 38.2213 81.3304 36.4L82.0004 36L85.7304 33.82L69.8304 24.82C68.3681 23.8361 67.3309 22.3367 66.9258 20.6215C66.5206 18.9062 66.7774 17.1012 67.6449 15.567C68.5124 14.0328 69.9267 12.8823 71.6054 12.3453C73.284 11.8082 75.1035 11.9242 76.7004 12.67L99.5504 25.74L121.94 12.74C123.522 11.9854 125.33 11.8519 127.006 12.3658C128.682 12.8796 130.104 14.0035 130.991 15.5152C131.878 17.0269 132.166 18.8165 131.797 20.5301C131.429 22.2437 130.431 23.7567 129 24.77L65.2904 61.55C65.5811 59.3617 66.0766 57.2056 66.7704 55.11L56.7704 49.39C43.9404 42.09 34.3704 43.24 28.5904 45.5C24.2839 47.0964 20.5729 49.9792 17.961 53.757C15.349 57.5348 13.9626 62.0248 13.9899 66.6175C14.0172 71.2103 15.4569 75.6834 18.1136 79.4299C20.7703 83.1764 24.5153 86.0149 28.8404 87.56C34.6404 89.75 44.2304 90.79 56.9804 83.33L135.19 37.56C143.85 32.49 152.75 29.89 161.19 29.84C165.996 29.792 170.768 30.6293 175.27 32.31C182.247 34.8404 188.278 39.4528 192.547 45.5231C196.816 51.5935 199.118 58.8287 199.14 66.25" fill="black"/>
</g>
<defs>
<clipPath id="clip0">
<rect width="566.93" height="115.31" fill="white"/>
</clipPath>
</defs>
</svg>
